<svg xmlns="http://www.w3.org/2000/svg" viewBox="0 0 447.99 511.99">
  <path d="M480,298.65A10.67,10.67,0,1,1,469.33,288,10.67,10.67,0,0,1,480,298.65Z" transform="translate(-32)" fill="#5d9cec"/>
  <path d="M394.65,21.33A10.66,10.66,0,1,1,384,10.65,10.67,10.67,0,0,1,394.65,21.33Z" transform="translate(-32)" fill="#fc6e51"/>
  <path d="M138.66,501.32A10.67,10.67,0,1,1,128,490.65,10.67,10.67,0,0,1,138.66,501.32Z" transform="translate(-32)" fill="#ed5564"/>
  <circle cx="10.67" cy="341.32" r="10.67" fill="#ffce54"/>
  <path d="M128,21.33V10.65a10.67,10.67,0,0,0-21.34,0V21.33a10.66,10.66,0,1,0,0,21.32V53.33a10.67,10.67,0,0,0,21.34,0V42.65a10.66,10.66,0,1,0,0-21.32Z" transform="translate(-32)" fill="#48cfad"/>
  <path d="M448,426.65V416a10.67,10.67,0,1,0-21.34,0v10.66a10.67,10.67,0,0,0,0,21.34v10.65a10.67,10.67,0,1,0,21.34,0V448a10.67,10.67,0,0,0,0-21.34Z" transform="translate(-32)" fill="#ac92eb"/>
  <path d="M245.32,490.64A17.84,17.84,0,0,1,235,487.38l-.1-.06C145.71,423.11,48.38,296.26,42.67,132.7c0-.25,0-.52,0-.77l.07-1.86a18.45,18.45,0,0,1,17.95-18.2c32.51-1.3,114.06-10.17,172.37-64.28a18,18,0,0,1,12.08-4.94h.35A18.19,18.19,0,0,1,255,45.56a11.62,11.62,0,0,1,1.42,1.09,11.69,11.69,0,0,1,1.24,1c58.24,54.08,139.89,62.93,172.46,64.23A18.38,18.38,0,0,1,447.91,130l.07,1.13c0,.31,0,.62,0,.94a434.55,434.55,0,0,1-19.64,115.21,461.72,461.72,0,0,1-44.52,99C351.05,401.08,306,450.88,257,486.46l-.13.08-1.19.84A17.74,17.74,0,0,1,245.32,490.64Z" transform="translate(-32)" fill="#ffce54"/>
  <g>
    <path d="M363.1,145.5a11.38,11.38,0,0,0-10.61-1.12L309,162a122.87,122.87,0,0,0-127.23,0l-43.56-17.57a11.35,11.35,0,0,0-15.6,10.53V267a122.77,122.77,0,1,0,245.54,0V154.91A11.35,11.35,0,0,0,363.1,145.5ZM245.34,367A100.05,100.05,0,0,1,162.43,323H180a9.09,9.09,0,0,0,0-18.17H152.71a98.17,98.17,0,0,1-3.84-11.26h50.62a9.09,9.09,0,0,0,0-18.18H145.65c-.23-2.76-.38-5.54-.38-8.36v-2.89H180a9.09,9.09,0,0,0,0-18.17H145.27V171.74l33.39,13.47a11.35,11.35,0,0,0,10.62-1.13,100.12,100.12,0,0,1,112.1,0A11.35,11.35,0,0,0,312,185.21l33.39-13.47v74.18H310.62a9.09,9.09,0,1,0,0,18.17h34.77V267c0,2.83-.15,5.61-.38,8.37H291.17a9.09,9.09,0,0,0,0,18.17h50.62A97.68,97.68,0,0,1,338,304.78H310.62a9.09,9.09,0,1,0,0,18.17h17.6A100,100,0,0,1,245.34,367Z" transform="translate(-32)" fill="#fff5e1"/>
    <path d="M264.76,271.69H225.9a3,3,0,0,0-3,3,22.46,22.46,0,1,0,44.92,0A3,3,0,0,0,264.76,271.69Z" transform="translate(-32)" fill="#fff5e1"/>
  </g>
</svg>
