<svg xmlns="http://www.w3.org/2000/svg" xmlns:xlink="http://www.w3.org/1999/xlink" viewBox="0 0 90.37 142.64">
  <defs>
    <linearGradient id="a" x1="393.88" y1="71.77" x2="417.52" y2="71.77" gradientTransform="matrix(-1, 0, 0, 1, 537.66, 0)" gradientUnits="userSpaceOnUse">
      <stop offset="0" stop-color="#214952"/>
      <stop offset="1" stop-color="#00252b"/>
    </linearGradient>
    <linearGradient id="b" x1="406.25" y1="131.83" x2="459.57" y2="131.83" xlink:href="#a"/>
    <linearGradient id="c" x1="432.91" y1="169.82" x2="460.68" y2="169.82" xlink:href="#a"/>
    <linearGradient id="d" x1="464.27" y1="150.58" x2="464.27" y2="43.03" xlink:href="#a"/>
    <linearGradient id="e" x1="417.86" y1="116.38" x2="417.86" y2="175.33" xlink:href="#a"/>
    <linearGradient id="f" x1="418.93" y1="106.62" x2="418.93" y2="186.12" gradientTransform="matrix(-1, 0, 0, 1, 483, -28.39)" gradientUnits="userSpaceOnUse">
      <stop offset="0" stop-color="#214952"/>
      <stop offset="1" stop-color="#007b87"/>
    </linearGradient>
    <linearGradient id="g" x1="457.59" y1="164.65" x2="437.57" y2="164.65" gradientTransform="matrix(-1, 0, 0, 1, 537.66, 0)" xlink:href="#f"/>
    <linearGradient id="h" x1="449.48" y1="146.87" x2="449.48" y2="72.44" gradientTransform="matrix(-1, 0, 0, 1, 537.66, 0)" xlink:href="#f"/>
  </defs>
  <g>
    <path d="M143,56.85a6.13,6.13,0,0,1-3.34-5.7,7.59,7.59,0,0,0-4.54-6.94l-7-3-6.82-12.8c-3.93,13.47-12.83,16.87-11.26,46-1.55,12.22-9.62,21.92-22.35,29.82-11.57,7.17-19.81,18.91-21.2,32.45C65.24,149,69.41,160.34,77.32,171h27.77l-.89-1.83a10,10,0,0,0-8.79-5.64,89.58,89.58,0,0,0-11,.4c12.69-13.42,30.93-21.75,25.75-39.86,15.21-1.84,20.18-13,21.41-24.38-4.88-14.45-7.34-27.26,2.1-31.91a15.9,15.9,0,0,0,10.22-2l1-4.42A4.22,4.22,0,0,0,143,56.85Z" transform="translate(-54.66 -28.39)" fill="#214952"/>
    <path d="M127.8,86.4c-1.57-8.59-.63-15.46,5.76-18.6a15.87,15.87,0,0,0,10.21-2c-9.64,2-21.48-1.17-23.64-9.4C124,75.54,128.55,90.51,127.8,86.4Z" transform="translate(-54.66 -28.39)" fill="url(#a)"/>
    <path d="M128.14,41.19c-1.93-3.64-4.28-8-6.81-12.8-3.93,13.47,1.84,19.68,1.84,19.68C122.77,44,124.38,41.71,128.14,41.19Z" transform="translate(-54.66 -28.39)" fill="#efcf1d"/>
    <path d="M135.72,51.07a21.73,21.73,0,0,0-4.89-4.6c5.25,1.93,7.37,5.36,7.67,9.66-.19-.5-.4-1-.63-1.48l.63,1.48c-5.7.53-7.65-1.57-8.15-4.71Z" transform="translate(-54.66 -28.39)" fill="#efcf1d"/>
    <path d="M142.36,57.64a4.69,4.69,0,0,1,.18-1.19c.17.12.32.24.5.35a4.22,4.22,0,0,1,1.87,4.58l0,.1A4,4,0,0,1,142.36,57.64Z" transform="translate(-54.66 -28.39)" fill="#0b2d33"/>
    <path d="M84.24,164c12.69-13.42,30.93-21.75,25.75-39.86,15.21-1.84,20.18-13,21.41-24.38-7.27,10.37-21.56,13.12-28.45.76,1.81,32.95-8,52.32-24.86,63.48Z" transform="translate(-54.66 -28.39)" fill="url(#b)"/>
    <path d="M79.25,168.68h24.36c.08.15.18.28.25.44l.89,1.83H77Z" transform="translate(-54.66 -28.39)" fill="url(#c)"/>
    <path d="M80.53,52.73c43.25,26.76-51.44,59.78-10.86,97.47l2.4,7.08C15.85,122,117.14,75.77,78.66,56.72a1.89,1.89,0,0,1-1-1.94l.1-.72A1.86,1.86,0,0,1,80.53,52.73Z" transform="translate(-54.66 -28.39)" fill="url(#d)"/>
    <path d="M121.27,28.61c-.42,4.12,1,9.08,3.13,14.37a6.42,6.42,0,0,0-1.24,5.09S117.46,41.92,121.27,28.61Z" transform="translate(-54.66 -28.39)" fill="#d1940d"/>
    <path d="M121.35,98.47l-1.29,65.14H122a6.67,6.67,0,0,1,6.66,6.67V171H114.09L111,102.63Z" transform="translate(-54.66 -28.39)" fill="url(#e)"/>
    <polygon points="66.54 70.08 65.25 135.22 61.6 72.06 66.54 70.08" fill="url(#f)"/>
    <path d="M92.87,165.28c-1.42,0-9.28.05-10.57.12L78,163.91c3.77-.36,13.92-.5,17.5-.41a10.1,10.1,0,0,1,6.19,2.33A64.54,64.54,0,0,0,92.87,165.28Z" transform="translate(-54.66 -28.39)" fill="url(#g)"/>
    <path d="M87.71,104.17c12.74-7.9,20.81-17.6,22.36-29.82,0-.64-.06-1.24-.09-1.85,1,29.35-37.45,42-43.41,73.34a42.37,42.37,0,0,1-.06-9.22C67.91,123.08,76.15,111.34,87.71,104.17Z" transform="translate(-54.66 -28.39)" fill="url(#h)"/>
    <g>
      <path d="M89.86,77.88a49.62,49.62,0,0,1-5,0A22.26,22.26,0,0,0,87.61,69a27.06,27.06,0,0,0,4.5-.49A20.58,20.58,0,0,1,89.86,77.88Z" transform="translate(-54.66 -28.39)" fill="#efcf1d"/>
      <path d="M80.46,85.05c.68-1,1.32-2,1.93-2.93,1.61.26,3.2.46,4.78.61-.63,1-1.31,2-2,3C83.59,85.55,82,85.31,80.46,85.05Z" transform="translate(-54.66 -28.39)" fill="#efcf1d"/>
      <path d="M87,77.94c-.77,0-1.54,0-2.32,0A22.33,22.33,0,0,0,87.48,69s0-.05,0-.08c.61,0,1.22-.07,1.82-.12A20.81,20.81,0,0,1,87,77.94Z" transform="translate(-54.66 -28.39)" fill="#d1940d"/>
      <path d="M80.34,85.05c.68-1,1.33-2,1.93-2.93.77.13,1.52.23,2.28.33-.61,1-1.26,2-2,2.94C81.84,85.28,81.1,85.18,80.34,85.05Z" transform="translate(-54.66 -28.39)" fill="#d1940d"/>
    </g>
  </g>
</svg>
